ffmpeg started on 2025-07-06 at 17:43:28
Report written to "D:\Convert\FFMetrics\reports\ssim_report-6.txt"
Log level: 32
Command line:
ffmpeg -hide_banner -nostdin -i "G:\\\xc0\xed\xe8\xec\xe5\\\xce\xed\xe3\xee\xe8\xed\xe3\xe8\\!_37_\xc7\xe8\xec\xe0_2025\\JamClub\\\xc3\xee\xeb\xf3\xe1\xe0\xff \xf8\xea\xe0\xf2\xf3\xeb\xea\xe0\\JamClub_Ao_no_Hako_08_1080p_HEVC.mkv" -i "G:\\\xc0\xed\xe8\xec\xe5\\\xce\xed\xe3\xee\xe8\xed\xe3\xe8\\!_37_\xc7\xe8\xec\xe0_2025\\JamClub\\\xc3\xee\xeb\xf3\xe1\xe0\xff \xf8\xea\xe0\xf2\xf3\xeb\xea\xe0\\JamClub_Ao_no_Hako_08_1080p.mp4" -lavfi "[0:v]settb=AVTB,setpts=PTS-STARTPTS,format=pix_fmts=yuv420p10,fps=24000/1001,scale=1920:1080:flags=bicubic[main];[1:v]settb=AVTB,setpts=PTS-STARTPTS,format=pix_fmts=yuv420p,fps=24000/1001,scale=1920:1080:flags=bicubic[ref];[main][ref]ssim=eof_action=endall:stats_file='D\\:/Convert/FFMetrics/logs/ssim_logfile-6.txt'" -f null -
Input #0, matroska,webm, from 'G:\Аниме\Онгоинги\!_37_Зима_2025\JamClub\Голубая шкатулка\JamClub_Ao_no_Hako_08_1080p_HEVC.mkv':
  Metadata:
    COMPATIBLE_BRANDS: isomiso2avc1mp41
    MAJOR_BRAND     : isom
    MINOR_VERSION   : 512
    ENCODER         : Lavf61.7.100
  Duration: 00:23:59.25, start: -0.001000, bitrate: 1166 kb/s
  Stream #0:0: Video: hevc (Main 10), yuv420p10le(tv, bt709, progressive), 1920x1080 [SAR 1:1 DAR 16:9], 23.98 fps, 23.98 tbr, 1k tbn (default)
      Metadata:
        HANDLER_NAME    : VideoHandler
        VENDOR_ID       : [0][0][0][0]
        ENCODER         : Lavc61.19.100 libx265
        BPS             : 968630
        DURATION        : 00:23:59.187708333
        NUMBER_OF_FRAMES: 34506
        NUMBER_OF_BYTES : 174255059
        _STATISTICS_WRITING_APP: mkvpropedit v66.0.0 ('Josie') 64-bit
        _STATISTICS_WRITING_DATE_UTC: 2025-07-03 16:07:32
        _STATISTICS_TAGS: BPS DURATION NUMBER_OF_FRAMES NUMBER_OF_BYTES
  Stream #0:1(eng): Audio: aac (LC), 48000 Hz, stereo, fltp (default)
      Metadata:
        HANDLER_NAME    : SoundHandler
        VENDOR_ID       : [0][0][0][0]
        ENCODER         : Lavc61.19.100 aac
        BPS             : 193657
        DURATION        : 00:23:59.213000000
        NUMBER_OF_FRAMES: 67464
        NUMBER_OF_BYTES : 34839368
        _STATISTICS_WRITING_APP: mkvpropedit v66.0.0 ('Josie') 64-bit
        _STATISTICS_WRITING_DATE_UTC: 2025-07-03 16:07:32
        _STATISTICS_TAGS: BPS DURATION NUMBER_OF_FRAMES NUMBER_OF_BYTES
Input #1, mov,mp4,m4a,3gp,3g2,mj2, from 'G:\Аниме\Онгоинги\!_37_Зима_2025\JamClub\Голубая шкатулка\JamClub_Ao_no_Hako_08_1080p.mp4':
  Metadata:
    major_brand     : isom
    minor_version   : 512
    compatible_brands: isomiso2avc1mp41
    encoder         : Lavf60.16.100
  Duration: 00:23:59.23, start: 0.000000, bitrate: 4787 kb/s
  Stream #1:0[0x1](und): Video: h264 (High) (avc1 / 0x31637661), yuv420p(progressive), 1920x1080 [SAR 1:1 DAR 16:9], 4589 kb/s, 23.98 fps, 23.98 tbr, 90k tbn (default)
      Metadata:
        handler_name    : VideoHandler
        vendor_id       : [0][0][0][0]
  Stream #1:1[0x2](eng): Audio: aac (LC) (mp4a / 0x6134706D), 48000 Hz, stereo, fltp, 191 kb/s (default)
      Metadata:
        handler_name    : SoundHandler
        vendor_id       : [0][0][0][0]
Stream mapping:
  Stream #0:0 (hevc) -> settb:default
  Stream #1:0 (h264) -> settb:default
  ssim:default -> Stream #0:0 (wrapped_avframe)
  Stream #0:1 -> #0:1 (aac (native) -> pcm_s16le (native))
Output #0, null, to 'pipe:':
  Metadata:
    COMPATIBLE_BRANDS: isomiso2avc1mp41
    MAJOR_BRAND     : isom
    MINOR_VERSION   : 512
    encoder         : Lavf61.7.100
  Stream #0:0: Video: wrapped_avframe, yuv420p10le(tv, bt709, progressive), 1920x1080 [SAR 1:1 DAR 16:9], q=2-31, 200 kb/s, 23.98 fps, 23.98 tbn
      Metadata:
        encoder         : Lavc61.19.100 wrapped_avframe
  Stream #0:1(eng): Audio: pcm_s16le, 48000 Hz, stereo, s16, 1536 kb/s (default)
      Metadata:
        HANDLER_NAME    : SoundHandler
        VENDOR_ID       : [0][0][0][0]
        _STATISTICS_TAGS: BPS DURATION NUMBER_OF_FRAMES NUMBER_OF_BYTES
        BPS             : 193657
        DURATION        : 00:23:59.213000000
        NUMBER_OF_FRAMES: 67464
        NUMBER_OF_BYTES : 34839368
        _STATISTICS_WRITING_APP: mkvpropedit v66.0.0 ('Josie') 64-bit
        _STATISTICS_WRITING_DATE_UTC: 2025-07-03 16:07:32
        encoder         : Lavc61.19.100 pcm_s16le
frame=  110 fps=0.0 q=-0.0 size=N/A time=00:00:04.58 bitrate=N/A speed=8.76x    frame=  269 fps=260 q=-0.0 size=N/A time=00:00:11.21 bitrate=N/A speed=10.8x    frame=  458 fps=296 q=-0.0 size=N/A time=00:00:19.10 bitrate=N/A speed=12.3x    frame=  712 fps=343 q=-0.0 size=N/A time=00:00:29.69 bitrate=N/A speed=14.3x    frame=  960 fps=371 q=-0.0 size=N/A time=00:00:40.04 bitrate=N/A speed=15.5x    frame= 1222 fps=395 q=-0.0 size=N/A time=00:00:50.96 bitrate=N/A speed=16.5x    frame= 1454 fps=403 q=-0.0 size=N/A time=00:01:00.64 bitrate=N/A speed=16.8x    frame= 1677 fps=406 q=-0.0 size=N/A time=00:01:09.94 bitrate=N/A speed=16.9x    frame= 1878 fps=404 q=-0.0 size=N/A time=00:01:18.32 bitrate=N/A speed=16.9x    frame= 2091 fps=405 q=-0.0 size=N/A time=00:01:27.21 bitrate=N/A speed=16.9x    frame= 2313 fps=407 q=-0.0 size=N/A time=00:01:36.47 bitrate=N/A speed=  17x    frame= 2508 fps=405 q=-0.0 size=N/A time=00:01:44.60 bitrate=N/A speed=16.9x    frame= 2696 fps=402 q=-0.0 size=N/A time=00:01:52.44 bitrate=N/A speed=16.8x    frame= 2905 fps=402 q=-0.0 size=N/A time=00:02:01.16 bitrate=N/A speed=16.8x    frame= 3116 fps=402 q=-0.0 size=N/A time=00:02:09.96 bitrate=N/A speed=16.8x    frame= 3314 fps=401 q=-0.0 size=N/A time=00:02:18.22 bitrate=N/A speed=16.7x    frame= 3557 fps=406 q=-0.0 size=N/A time=00:02:28.35 bitrate=N/A speed=16.9x    frame= 3797 fps=409 q=-0.0 size=N/A time=00:02:38.36 bitrate=N/A speed=17.1x    frame= 4063 fps=414 q=-0.0 size=N/A time=00:02:49.46 bitrate=N/A speed=17.3x    frame= 4326 fps=419 q=-0.0 size=N/A time=00:03:00.43 bitrate=N/A speed=17.5x    frame= 4566 fps=422 q=-0.0 size=N/A time=00:03:10.44 bitrate=N/A speed=17.6x    frame= 4826 fps=425 q=-0.0 size=N/A time=00:03:21.28 bitrate=N/A speed=17.7x    frame= 5095 fps=429 q=-0.0 size=N/A time=00:03:32.50 bitrate=N/A speed=17.9x    frame= 5314 fps=429 q=-0.0 size=N/A time=00:03:41.63 bitrate=N/A speed=17.9x    frame= 5536 fps=429 q=-0.0 size=N/A time=00:03:50.89 bitrate=N/A speed=17.9x    frame= 5776 fps=430 q=-0.0 size=N/A time=00:04:00.90 bitrate=N/A speed=  18x    frame= 6009 fps=431 q=-0.0 size=N/A time=00:04:10.62 bitrate=N/A speed=  18x    frame= 6250 fps=433 q=-0.0 size=N/A time=00:04:20.67 bitrate=N/A speed=  18x    frame= 6505 fps=435 q=-0.0 size=N/A time=00:04:31.31 bitrate=N/A speed=18.1x    frame= 6744 fps=436 q=-0.0 size=N/A time=00:04:41.28 bitrate=N/A speed=18.2x    frame= 7000 fps=438 q=-0.0 size=N/A time=00:04:51.95 bitrate=N/A speed=18.3x    frame= 7249 fps=439 q=-0.0 size=N/A time=00:05:02.34 bitrate=N/A speed=18.3x    frame= 7494 fps=440 q=-0.0 size=N/A time=00:05:12.56 bitrate=N/A speed=18.4x    frame= 7724 fps=440 q=-0.0 size=N/A time=00:05:22.15 bitrate=N/A speed=18.4x    frame= 7958 fps=441 q=-0.0 size=N/A time=00:05:31.91 bitrate=N/A speed=18.4x    frame= 8212 fps=442 q=-0.0 size=N/A time=00:05:42.50 bitrate=N/A speed=18.4x    frame= 8466 fps=444 q=-0.0 size=N/A time=00:05:53.10 bitrate=N/A speed=18.5x    frame= 8716 fps=445 q=-0.0 size=N/A time=00:06:03.52 bitrate=N/A speed=18.5x    frame= 8955 fps=445 q=-0.0 size=N/A time=00:06:13.49 bitrate=N/A speed=18.6x    frame= 9210 fps=446 q=-0.0 size=N/A time=00:06:24.13 bitrate=N/A speed=18.6x    frame= 9447 fps=447 q=-0.0 size=N/A time=00:06:34.01 bitrate=N/A speed=18.6x    frame= 9721 fps=449 q=-0.0 size=N/A time=00:06:45.44 bitrate=N/A speed=18.7x    frame= 9966 fps=449 q=-0.0 size=N/A time=00:06:55.66 bitrate=N/A speed=18.7x    frame=10192 fps=449 q=-0.0 size=N/A time=00:07:05.09 bitrate=N/A speed=18.7x    frame=10451 fps=450 q=-0.0 size=N/A time=00:07:15.89 bitrate=N/A speed=18.8x    frame=10627 fps=448 q=-0.0 size=N/A time=00:07:23.23 bitrate=N/A speed=18.7x    frame=10819 fps=446 q=-0.0 size=N/A time=00:07:31.24 bitrate=N/A speed=18.6x    frame=11067 fps=447 q=-0.0 size=N/A time=00:07:41.58 bitrate=N/A speed=18.6x    frame=11292 fps=447 q=-0.0 size=N/A time=00:07:50.97 bitrate=N/A speed=18.6x    frame=11543 fps=448 q=-0.0 size=N/A time=00:08:01.43 bitrate=N/A speed=18.7x    frame=11804 fps=449 q=-0.0 size=N/A time=00:08:12.32 bitrate=N/A speed=18.7x    frame=12057 fps=450 q=-0.0 size=N/A time=00:08:22.87 bitrate=N/A speed=18.8x    frame=12321 fps=451 q=-0.0 size=N/A time=00:08:33.88 bitrate=N/A speed=18.8x    frame=12568 fps=451 q=-0.0 size=N/A time=00:08:44.19 bitrate=N/A speed=18.8x    frame=12820 fps=452 q=-0.0 size=N/A time=00:08:54.70 bitrate=N/A speed=18.9x    frame=13083 fps=453 q=-0.0 size=N/A time=00:09:05.67 bitrate=N/A speed=18.9x    frame=13351 fps=454 q=-0.0 size=N/A time=00:09:16.84 bitrate=N/A speed=18.9x    frame=13607 fps=455 q=-0.0 size=N/A time=00:09:27.52 bitrate=N/A speed=  19x    frame=13868 fps=456 q=-0.0 size=N/A time=00:09:38.41 bitrate=N/A speed=  19x    frame=14115 fps=456 q=-0.0 size=N/A time=00:09:48.71 bitrate=N/A speed=  19x    frame=14375 fps=457 q=-0.0 size=N/A time=00:09:59.55 bitrate=N/A speed=19.1x    frame=14620 fps=457 q=-0.0 size=N/A time=00:10:09.77 bitrate=N/A speed=19.1x    frame=14864 fps=458 q=-0.0 size=N/A time=00:10:19.95 bitrate=N/A speed=19.1x    frame=15100 fps=457 q=-0.0 size=N/A time=00:10:29.79 bitrate=N/A speed=19.1x    frame=15273 fps=456 q=-0.0 size=N/A time=00:10:37.01 bitrate=N/A speed=  19x    frame=15511 fps=456 q=-0.0 size=N/A time=00:10:46.93 bitrate=N/A speed=  19x    frame=15730 fps=455 q=-0.0 size=N/A time=00:10:56.07 bitrate=N/A speed=  19x    frame=15937 fps=454 q=-0.0 size=N/A time=00:11:04.70 bitrate=N/A speed=  19x    frame=16138 fps=454 q=-0.0 size=N/A time=00:11:13.08 bitrate=N/A speed=18.9x    frame=16325 fps=452 q=-0.0 size=N/A time=00:11:20.88 bitrate=N/A speed=18.9x    frame=16558 fps=452 q=-0.0 size=N/A time=00:11:30.60 bitrate=N/A speed=18.9x    frame=16784 fps=452 q=-0.0 size=N/A time=00:11:40.03 bitrate=N/A speed=18.9x    frame=17037 fps=453 q=-0.0 size=N/A time=00:11:50.58 bitrate=N/A speed=18.9x    frame=17265 fps=452 q=-0.0 size=N/A time=00:12:00.09 bitrate=N/A speed=18.9x    frame=17521 fps=453 q=-0.0 size=N/A time=00:12:10.77 bitrate=N/A speed=18.9x    frame=17778 fps=454 q=-0.0 size=N/A time=00:12:21.49 bitrate=N/A speed=18.9x    frame=18042 fps=454 q=-0.0 size=N/A time=00:12:32.50 bitrate=N/A speed=  19x    frame=18292 fps=455 q=-0.0 size=N/A time=00:12:42.92 bitrate=N/A speed=  19x    frame=18564 fps=456 q=-0.0 size=N/A time=00:12:54.27 bitrate=N/A speed=  19x    frame=18827 fps=456 q=-0.0 size=N/A time=00:13:05.24 bitrate=N/A speed=  19x    frame=19062 fps=456 q=-0.0 size=N/A time=00:13:15.04 bitrate=N/A speed=  19x    frame=19287 fps=456 q=-0.0 size=N/A time=00:13:24.42 bitrate=N/A speed=  19x    frame=19538 fps=456 q=-0.0 size=N/A time=00:13:34.89 bitrate=N/A speed=  19x    frame=19798 fps=457 q=-0.0 size=N/A time=00:13:45.74 bitrate=N/A speed=19.1x    frame=20045 fps=457 q=-0.0 size=N/A time=00:13:56.04 bitrate=N/A speed=19.1x    frame=20271 fps=457 q=-0.0 size=N/A time=00:14:05.46 bitrate=N/A speed=19.1x    frame=20508 fps=457 q=-0.0 size=N/A time=00:14:15.35 bitrate=N/A speed=19.1x    frame=20709 fps=456 q=-0.0 size=N/A time=00:14:23.73 bitrate=N/A speed=  19x    frame=20936 fps=456 q=-0.0 size=N/A time=00:14:33.20 bitrate=N/A speed=  19x    frame=21206 fps=457 q=-0.0 size=N/A time=00:14:44.46 bitrate=N/A speed=19.1x    frame=21447 fps=457 q=-0.0 size=N/A time=00:14:54.51 bitrate=N/A speed=19.1x    frame=21690 fps=457 q=-0.0 size=N/A time=00:15:04.65 bitrate=N/A speed=19.1x    frame=21899 fps=457 q=-0.0 size=N/A time=00:15:13.37 bitrate=N/A speed=  19x    frame=22160 fps=457 q=-0.0 size=N/A time=00:15:24.25 bitrate=N/A speed=19.1x    frame=22420 fps=458 q=-0.0 size=N/A time=00:15:35.10 bitrate=N/A speed=19.1x    frame=22682 fps=458 q=-0.0 size=N/A time=00:15:46.02 bitrate=N/A speed=19.1x    frame=22912 fps=458 q=-0.0 size=N/A time=00:15:55.62 bitrate=N/A speed=19.1x    frame=23151 fps=458 q=-0.0 size=N/A time=00:16:05.58 bitrate=N/A speed=19.1x    frame=23401 fps=458 q=-0.0 size=N/A time=00:16:16.01 bitrate=N/A speed=19.1x    frame=23649 fps=459 q=-0.0 size=N/A time=00:16:26.36 bitrate=N/A speed=19.1x    frame=23923 fps=459 q=-0.0 size=N/A time=00:16:37.78 bitrate=N/A speed=19.2x    frame=24183 fps=460 q=-0.0 size=N/A time=00:16:48.63 bitrate=N/A speed=19.2x    frame=24431 fps=460 q=-0.0 size=N/A time=00:16:58.97 bitrate=N/A speed=19.2x    frame=24655 fps=460 q=-0.0 size=N/A time=00:17:08.31 bitrate=N/A speed=19.2x    frame=24911 fps=460 q=-0.0 size=N/A time=00:17:18.99 bitrate=N/A speed=19.2x    frame=25178 fps=461 q=-0.0 size=N/A time=00:17:30.13 bitrate=N/A speed=19.2x    frame=25431 fps=461 q=-0.0 size=N/A time=00:17:40.68 bitrate=N/A speed=19.2x    frame=25643 fps=460 q=-0.0 size=N/A time=00:17:49.52 bitrate=N/A speed=19.2x    frame=25901 fps=461 q=-0.0 size=N/A time=00:18:00.28 bitrate=N/A speed=19.2x    frame=26161 fps=461 q=-0.0 size=N/A time=00:18:11.13 bitrate=N/A speed=19.2x    frame=26421 fps=462 q=-0.0 size=N/A time=00:18:21.97 bitrate=N/A speed=19.3x    frame=26674 fps=462 q=-0.0 size=N/A time=00:18:32.52 bitrate=N/A speed=19.3x    frame=26937 fps=462 q=-0.0 size=N/A time=00:18:43.49 bitrate=N/A speed=19.3x    frame=27167 fps=462 q=-0.0 size=N/A time=00:18:53.09 bitrate=N/A speed=19.3x    frame=27384 fps=462 q=-0.0 size=N/A time=00:19:02.14 bitrate=N/A speed=19.3x    frame=27607 fps=462 q=-0.0 size=N/A time=00:19:11.44 bitrate=N/A speed=19.3x    frame=27813 fps=461 q=-0.0 size=N/A time=00:19:20.03 bitrate=N/A speed=19.2x    frame=28019 fps=460 q=-0.0 size=N/A time=00:19:28.62 bitrate=N/A speed=19.2x    frame=28270 fps=461 q=-0.0 size=N/A time=00:19:39.09 bitrate=N/A speed=19.2x    frame=28493 fps=460 q=-0.0 size=N/A time=00:19:48.39 bitrate=N/A speed=19.2x    frame=28708 fps=460 q=-0.0 size=N/A time=00:19:57.36 bitrate=N/A speed=19.2x    frame=28943 fps=460 q=-0.0 size=N/A time=00:20:07.16 bitrate=N/A speed=19.2x    frame=29177 fps=460 q=-0.0 size=N/A time=00:20:16.92 bitrate=N/A speed=19.2x    frame=29420 fps=460 q=-0.0 size=N/A time=00:20:27.05 bitrate=N/A speed=19.2x    frame=29681 fps=460 q=-0.0 size=N/A time=00:20:37.94 bitrate=N/A speed=19.2x    frame=29942 fps=461 q=-0.0 size=N/A time=00:20:48.83 bitrate=N/A speed=19.2x    frame=30160 fps=460 q=-0.0 size=N/A time=00:20:57.92 bitrate=N/A speed=19.2x    frame=30421 fps=461 q=-0.0 size=N/A time=00:21:08.80 bitrate=N/A speed=19.2x    frame=30687 fps=461 q=-0.0 size=N/A time=00:21:19.90 bitrate=N/A speed=19.2x    frame=30939 fps=461 q=-0.0 size=N/A time=00:21:30.41 bitrate=N/A speed=19.2x    frame=31200 fps=462 q=-0.0 size=N/A time=00:21:41.30 bitrate=N/A speed=19.3x    frame=31458 fps=462 q=-0.0 size=N/A time=00:21:52.06 bitrate=N/A speed=19.3x    frame=31716 fps=462 q=-0.0 size=N/A time=00:22:02.82 bitrate=N/A speed=19.3x    frame=31930 fps=462 q=-0.0 size=N/A time=00:22:11.74 bitrate=N/A speed=19.3x    frame=32141 fps=462 q=-0.0 size=N/A time=00:22:20.54 bitrate=N/A speed=19.3x    frame=32378 fps=462 q=-0.0 size=N/A time=00:22:30.43 bitrate=N/A speed=19.3x    frame=32599 fps=461 q=-0.0 size=N/A time=00:22:39.64 bitrate=N/A speed=19.2x    frame=32796 fps=461 q=-0.0 size=N/A time=00:22:47.86 bitrate=N/A speed=19.2x    frame=33015 fps=460 q=-0.0 size=N/A time=00:22:57.00 bitrate=N/A speed=19.2x    frame=33203 fps=460 q=-0.0 size=N/A time=00:23:04.84 bitrate=N/A speed=19.2x    frame=33432 fps=460 q=-0.0 size=N/A time=00:23:14.39 bitrate=N/A speed=19.2x    frame=33655 fps=460 q=-0.0 size=N/A time=00:23:23.69 bitrate=N/A speed=19.2x    frame=33865 fps=459 q=-0.0 size=N/A time=00:23:32.45 bitrate=N/A speed=19.1x    frame=34080 fps=459 q=-0.0 size=N/A time=00:23:41.42 bitrate=N/A speed=19.1x    frame=34303 fps=459 q=-0.0 size=N/A time=00:23:50.72 bitrate=N/A speed=19.1x    [Parsed_ssim_10 @ 00000158e922f7c0] SSIM Y:0.993952 (22.184233) U:0.994361 (22.488043) V:0.994090 (22.284242) All:0.994044 (22.250113)
[out#0/null @ 00000158e26ec040] video:14827KiB audio:269856KiB subtitle:0KiB other streams:0KiB global headers:0KiB muxing overhead: unknown
frame=34506 fps=459 q=-0.0 Lsize=N/A time=00:23:59.18 bitrate=N/A speed=19.1x    
